<mxfile host="app.diagrams.net" modified="2021-10-27T03:38:21.802Z" agent="5.0 (Windows NT 10.0; Win64; x64) AppleWebKit/537.36 (KHTML, like Gecko) Chrome/95.0.4638.54 Safari/537.36 Edg/95.0.1020.30" etag="2dgWP6Z6E_8fKoF1SLvi" version="15.5.9" type="github" pages="2">
  <diagram id="kZ63lcqigSkUyuBlM7nN" name="Page-1">
    <mxGraphModel dx="4862" dy="794" grid="1" gridSize="10" guides="1" tooltips="1" connect="1" arrows="1" fold="1" page="0" pageScale="1" pageWidth="827" pageHeight="1169" background="#FFFFFF" math="0" shadow="0">
      <root>
        <mxCell id="0" />
        <mxCell id="1" parent="0" />
        <mxCell id="r5ramBtwSjtrfA-3wPr2-2" value="&lt;span&gt;&lt;br&gt;&lt;/span&gt;" style="rounded=0;whiteSpace=wrap;html=1;align=left;verticalAlign=top;" parent="1" vertex="1">
          <mxGeometry x="-2600" y="1880" width="340" height="360" as="geometry" />
        </mxCell>
        <mxCell id="r5ramBtwSjtrfA-3wPr2-1" value="&lt;span&gt;&lt;br&gt;&lt;/span&gt;" style="rounded=0;whiteSpace=wrap;html=1;align=left;verticalAlign=top;" parent="1" vertex="1">
          <mxGeometry x="-3015" y="1880" width="410" height="360" as="geometry" />
        </mxCell>
        <mxCell id="BKTpE5ZPr7_NbWnBAb7e-11" value="" style="rounded=0;whiteSpace=wrap;html=1;align=left;verticalAlign=top;" parent="1" vertex="1">
          <mxGeometry x="-1790" y="1880" width="510" height="510" as="geometry" />
        </mxCell>
        <mxCell id="BKTpE5ZPr7_NbWnBAb7e-10" value="&lt;span&gt;&lt;br&gt;&lt;/span&gt;" style="rounded=0;whiteSpace=wrap;html=1;align=left;verticalAlign=top;" parent="1" vertex="1">
          <mxGeometry x="-2258" y="1880" width="458" height="360" as="geometry" />
        </mxCell>
        <mxCell id="cCYQIvM1xQURCpns52On-4" value="" style="rounded=0;whiteSpace=wrap;html=1;fillColor=#fff2cc;strokeColor=#d6b656;" parent="1" vertex="1">
          <mxGeometry x="-1690" y="370" width="590" height="470" as="geometry" />
        </mxCell>
        <mxCell id="FFYYFAyrFMQU7xoFWoiy-26" style="edgeStyle=orthogonalEdgeStyle;rounded=0;orthogonalLoop=1;jettySize=auto;html=1;exitX=0.5;exitY=0;exitDx=0;exitDy=0;entryX=0.526;entryY=1;entryDx=0;entryDy=0;entryPerimeter=0;strokeColor=#000000;" parent="1" source="FFYYFAyrFMQU7xoFWoiy-24" target="FFYYFAyrFMQU7xoFWoiy-22" edge="1">
          <mxGeometry relative="1" as="geometry" />
        </mxCell>
        <mxCell id="FFYYFAyrFMQU7xoFWoiy-27" style="edgeStyle=orthogonalEdgeStyle;rounded=0;orthogonalLoop=1;jettySize=auto;html=1;exitX=0.5;exitY=1;exitDx=0;exitDy=0;entryX=0.537;entryY=-0.025;entryDx=0;entryDy=0;entryPerimeter=0;strokeColor=#000000;" parent="1" source="FFYYFAyrFMQU7xoFWoiy-24" target="FFYYFAyrFMQU7xoFWoiy-23" edge="1">
          <mxGeometry relative="1" as="geometry" />
        </mxCell>
        <mxCell id="FFYYFAyrFMQU7xoFWoiy-24" value="" style="rounded=0;whiteSpace=wrap;html=1;" parent="1" vertex="1">
          <mxGeometry x="310" y="190" width="340" height="80" as="geometry" />
        </mxCell>
        <mxCell id="FFYYFAyrFMQU7xoFWoiy-23" value="" style="rounded=0;whiteSpace=wrap;html=1;" parent="1" vertex="1">
          <mxGeometry x="220" y="300" width="490" height="80" as="geometry" />
        </mxCell>
        <mxCell id="FFYYFAyrFMQU7xoFWoiy-22" value="" style="rounded=0;whiteSpace=wrap;html=1;" parent="1" vertex="1">
          <mxGeometry x="300" y="90" width="340" height="80" as="geometry" />
        </mxCell>
        <mxCell id="FFYYFAyrFMQU7xoFWoiy-15" style="edgeStyle=orthogonalEdgeStyle;rounded=0;orthogonalLoop=1;jettySize=auto;html=1;exitX=1;exitY=0.5;exitDx=0;exitDy=0;entryX=0;entryY=0.5;entryDx=0;entryDy=0;strokeColor=none;" parent="1" source="FFYYFAyrFMQU7xoFWoiy-1" target="FFYYFAyrFMQU7xoFWoiy-10" edge="1">
          <mxGeometry relative="1" as="geometry" />
        </mxCell>
        <mxCell id="FFYYFAyrFMQU7xoFWoiy-1" value="开闭原则" style="rounded=0;whiteSpace=wrap;html=1;" parent="1" vertex="1">
          <mxGeometry x="320" y="200" width="146" height="60" as="geometry" />
        </mxCell>
        <mxCell id="FFYYFAyrFMQU7xoFWoiy-2" value="实现/类" style="rounded=0;whiteSpace=wrap;html=1;" parent="1" vertex="1">
          <mxGeometry x="74" y="310" width="146" height="60" as="geometry" />
        </mxCell>
        <mxCell id="FFYYFAyrFMQU7xoFWoiy-3" value="接口" style="rounded=0;whiteSpace=wrap;html=1;" parent="1" vertex="1">
          <mxGeometry x="154" y="100" width="146" height="60" as="geometry" />
        </mxCell>
        <mxCell id="FFYYFAyrFMQU7xoFWoiy-6" value="依赖倒置" style="rounded=0;whiteSpace=wrap;html=1;" parent="1" vertex="1">
          <mxGeometry x="310" y="100" width="146" height="60" as="geometry" />
        </mxCell>
        <mxCell id="FFYYFAyrFMQU7xoFWoiy-7" value="接口隔离" style="rounded=0;whiteSpace=wrap;html=1;" parent="1" vertex="1">
          <mxGeometry x="480" y="100" width="146" height="60" as="geometry" />
        </mxCell>
        <mxCell id="FFYYFAyrFMQU7xoFWoiy-8" value="迪米特法则&lt;br&gt;（最少知道原则）" style="rounded=0;whiteSpace=wrap;html=1;" parent="1" vertex="1">
          <mxGeometry x="230" y="310" width="146" height="60" as="geometry" />
        </mxCell>
        <mxCell id="FFYYFAyrFMQU7xoFWoiy-9" value="合成复用原则" style="rounded=0;whiteSpace=wrap;html=1;" parent="1" vertex="1">
          <mxGeometry x="550" y="310" width="146" height="60" as="geometry" />
        </mxCell>
        <mxCell id="FFYYFAyrFMQU7xoFWoiy-10" value="单一职责原则" style="rounded=0;whiteSpace=wrap;html=1;" parent="1" vertex="1">
          <mxGeometry x="492" y="200" width="146" height="60" as="geometry" />
        </mxCell>
        <mxCell id="FFYYFAyrFMQU7xoFWoiy-19" value="里氏替换原则" style="rounded=0;whiteSpace=wrap;html=1;" parent="1" vertex="1">
          <mxGeometry x="390" y="310" width="146" height="60" as="geometry" />
        </mxCell>
        <mxCell id="59qTJfXqNCazVwxfQSMt-1" value="" style="whiteSpace=wrap;html=1;" parent="1" vertex="1">
          <mxGeometry x="-60" y="30" width="120" height="60" as="geometry" />
        </mxCell>
        <mxCell id="ZVDtoNXzQclu92WVi-xo-1" value="参数管理类&lt;br&gt;参数ID&amp;nbsp; &amp;nbsp; &amp;nbsp; &amp;nbsp;# 参数ID为0即默认参数，持久化文件已有&lt;br&gt;参数描述&lt;br&gt;参数率定时间&amp;nbsp; # 默认参数时间&lt;span style=&quot;color: rgb(0 , 128 , 128) ; font-weight: bold ; background-color: rgb(255 , 255 , 255) ; font-family: &amp;#34;jetbrains mono&amp;#34; , monospace ; font-size: 9.8pt&quot;&gt;2017/09/30  23:00&lt;/span&gt;&lt;br&gt;各个站点参数集合&lt;br&gt;状态库名（即保存状态的文件名）" style="rounded=0;html=1;align=left;fontFamily=Helvetica;verticalAlign=top;horizontal=1;labelBorderColor=none;whiteSpace=wrap;spacingLeft=20;spacingTop=8;" parent="1" vertex="1">
          <mxGeometry x="-420" y="480" width="320" height="200" as="geometry" />
        </mxCell>
        <mxCell id="ZVDtoNXzQclu92WVi-xo-2" value="参数管理模块" style="rounded=0;whiteSpace=wrap;html=1;" parent="1" vertex="1">
          <mxGeometry x="-420" y="420" width="120" height="60" as="geometry" />
        </mxCell>
        <mxCell id="ZVDtoNXzQclu92WVi-xo-3" value="状态管理模块" style="rounded=0;whiteSpace=wrap;html=1;" parent="1" vertex="1">
          <mxGeometry x="-90" y="420" width="120" height="60" as="geometry" />
        </mxCell>
        <mxCell id="ZVDtoNXzQclu92WVi-xo-4" value="&lt;blockquote style=&quot;font-size: 9.8pt&quot;&gt;&lt;span style=&quot;background-color: rgb(255 , 255 , 255)&quot;&gt;时间：状态信息（时间格式：****/**/**&amp;nbsp; **/**）&lt;br&gt;&lt;/span&gt;&lt;span style=&quot;background-color: rgb(255 , 255 , 255)&quot;&gt;self.F = F&lt;br&gt;&lt;/span&gt;&lt;span style=&quot;background-color: rgb(255 , 255 , 255)&quot;&gt;self.delt = delt&lt;br&gt;&lt;/span&gt;&lt;span style=&quot;background-color: rgb(255 , 255 , 255)&quot;&gt;self.ini_pars_0 = ini_pars_0 &lt;span&gt;	&lt;/span&gt;&lt;span&gt;	&lt;/span&gt;&lt;span&gt;	&lt;/span&gt;# 状态每次模拟更新&lt;br&gt;&lt;/span&gt;&lt;span style=&quot;background-color: rgb(255 , 255 , 255)&quot;&gt;self.best_pars = best_pars&lt;span&gt;	&lt;/span&gt;&lt;span&gt;	&lt;/span&gt;&lt;span&gt;	&lt;/span&gt;#参数，一般不更新&lt;br&gt;&lt;/span&gt;&lt;span style=&quot;background-color: rgb(255 , 255 , 255)&quot;&gt;self.obs_dataset = obs_dataset&lt;span&gt;	&lt;/span&gt;&lt;span&gt;	&lt;/span&gt;#模拟的时候读数据库&lt;br&gt;&lt;/span&gt;&lt;span style=&quot;background-color: rgb(255 , 255 , 255)&quot;&gt;self.pred_excel = pred_excel&lt;span&gt;	&lt;/span&gt;&lt;span&gt;	&lt;/span&gt;&lt;span&gt;	&lt;/span&gt;# 弃用&lt;br&gt;&lt;/span&gt;&lt;span style=&quot;background-color: rgb(255 , 255 , 255)&quot;&gt;self.sim_ls = []&lt;span&gt;	&lt;/span&gt;&lt;span&gt;	&lt;/span&gt;&lt;span&gt;	&lt;/span&gt;&lt;span&gt;	&lt;/span&gt;&lt;span&gt;	&lt;/span&gt;&lt;span&gt;	&lt;/span&gt;# 模拟结果，暂时不丢&lt;br&gt;&lt;/span&gt;&lt;span style=&quot;background-color: rgb(255 , 255 , 255)&quot;&gt;self.pred_ls = []&lt;span&gt;	&lt;/span&gt;&lt;span&gt;	&lt;/span&gt;&lt;span&gt;	&lt;/span&gt;&lt;span&gt;	&lt;/span&gt;&lt;span&gt;	&lt;/span&gt;# 预报结果，写数据库&lt;br&gt;&lt;/span&gt;&lt;span style=&quot;background-color: rgb(255 , 255 , 255)&quot;&gt;self.st_name = st_name&lt;span&gt;	&lt;/span&gt;&lt;span&gt;	&lt;/span&gt;&lt;span&gt;	&lt;/span&gt;&lt;span&gt;	&lt;/span&gt;# 站点名&lt;br&gt;&lt;/span&gt;&lt;span style=&quot;background-color: rgb(255 , 255 , 255)&quot;&gt;self.predQ_10 = []&lt;/span&gt;&lt;/blockquote&gt;" style="rounded=0;whiteSpace=wrap;html=1;align=left;verticalAlign=top;fontFamily=Helvetica;" parent="1" vertex="1">
          <mxGeometry x="-90" y="480" width="480" height="220" as="geometry" />
        </mxCell>
        <mxCell id="_4Hc_P67nSbgnlB6Afqk-81" style="edgeStyle=orthogonalEdgeStyle;rounded=0;orthogonalLoop=1;jettySize=auto;html=1;exitX=0.5;exitY=1;exitDx=0;exitDy=0;fontColor=#FF0080;" parent="1" source="ZVDtoNXzQclu92WVi-xo-5" target="ZVDtoNXzQclu92WVi-xo-10" edge="1">
          <mxGeometry relative="1" as="geometry" />
        </mxCell>
        <mxCell id="ZVDtoNXzQclu92WVi-xo-5" value="开始预报" style="rounded=1;whiteSpace=wrap;html=1;fontFamily=Helvetica;fontColor=#000000;align=center;verticalAlign=middle;" parent="1" vertex="1">
          <mxGeometry x="-765.94" y="751" width="109.37" height="30" as="geometry" />
        </mxCell>
        <mxCell id="_4Hc_P67nSbgnlB6Afqk-83" style="edgeStyle=orthogonalEdgeStyle;rounded=0;orthogonalLoop=1;jettySize=auto;html=1;exitX=0.5;exitY=1;exitDx=0;exitDy=0;fontColor=#FF0080;" parent="1" source="ZVDtoNXzQclu92WVi-xo-6" target="ZVDtoNXzQclu92WVi-xo-12" edge="1">
          <mxGeometry relative="1" as="geometry" />
        </mxCell>
        <mxCell id="ZVDtoNXzQclu92WVi-xo-6" value="根据请求参数选择使用哪一套参数" style="rounded=0;whiteSpace=wrap;html=1;fontFamily=Helvetica;fontColor=#000000;align=center;verticalAlign=middle;" parent="1" vertex="1">
          <mxGeometry x="-822.5" y="876" width="220" height="40" as="geometry" />
        </mxCell>
        <mxCell id="ZVDtoNXzQclu92WVi-xo-9" value="参数对象持久化文件名&lt;br&gt;pars_obj_shelve" style="rounded=0;whiteSpace=wrap;html=1;fontFamily=Helvetica;fontColor=#000000;align=center;verticalAlign=middle;" parent="1" vertex="1">
          <mxGeometry x="-630" y="480" width="150" height="50" as="geometry" />
        </mxCell>
        <mxCell id="_4Hc_P67nSbgnlB6Afqk-82" style="edgeStyle=orthogonalEdgeStyle;rounded=0;orthogonalLoop=1;jettySize=auto;html=1;exitX=0.5;exitY=1;exitDx=0;exitDy=0;entryX=0.5;entryY=0;entryDx=0;entryDy=0;fontColor=#FF0080;" parent="1" source="ZVDtoNXzQclu92WVi-xo-10" target="ZVDtoNXzQclu92WVi-xo-6" edge="1">
          <mxGeometry relative="1" as="geometry" />
        </mxCell>
        <mxCell id="ZVDtoNXzQclu92WVi-xo-10" value="获得模型管理器" style="rounded=0;whiteSpace=wrap;html=1;fontFamily=Helvetica;fontColor=#000000;align=center;verticalAlign=middle;" parent="1" vertex="1">
          <mxGeometry x="-822.5" y="811" width="222.5" height="40" as="geometry" />
        </mxCell>
        <mxCell id="_4Hc_P67nSbgnlB6Afqk-2" value="" style="edgeStyle=orthogonalEdgeStyle;rounded=0;orthogonalLoop=1;jettySize=auto;html=1;" parent="1" source="ZVDtoNXzQclu92WVi-xo-12" target="_4Hc_P67nSbgnlB6Afqk-1" edge="1">
          <mxGeometry relative="1" as="geometry" />
        </mxCell>
        <mxCell id="ZVDtoNXzQclu92WVi-xo-12" value="根据参数获得相应的状态文件" style="rounded=0;whiteSpace=wrap;html=1;fontFamily=Helvetica;fontColor=#000000;align=center;verticalAlign=middle;" parent="1" vertex="1">
          <mxGeometry x="-822.5" y="941" width="220" height="40" as="geometry" />
        </mxCell>
        <mxCell id="_4Hc_P67nSbgnlB6Afqk-77" style="edgeStyle=orthogonalEdgeStyle;rounded=0;orthogonalLoop=1;jettySize=auto;html=1;exitX=0;exitY=0.5;exitDx=0;exitDy=0;entryX=0.5;entryY=0;entryDx=0;entryDy=0;fontColor=#FF0080;" parent="1" source="_4Hc_P67nSbgnlB6Afqk-1" target="_4Hc_P67nSbgnlB6Afqk-17" edge="1">
          <mxGeometry relative="1" as="geometry" />
        </mxCell>
        <mxCell id="_4Hc_P67nSbgnlB6Afqk-1" value="根据startTime获得上一小时的状态&lt;br&gt;last_hour_stations_status" style="rounded=0;whiteSpace=wrap;html=1;fontFamily=Helvetica;fontColor=#000000;align=center;verticalAlign=middle;" parent="1" vertex="1">
          <mxGeometry x="-822.5" y="1011" width="220" height="40" as="geometry" />
        </mxCell>
        <mxCell id="_4Hc_P67nSbgnlB6Afqk-58" value="yes" style="edgeStyle=orthogonalEdgeStyle;rounded=0;orthogonalLoop=1;jettySize=auto;html=1;exitX=0.5;exitY=1;exitDx=0;exitDy=0;entryX=0.5;entryY=0;entryDx=0;entryDy=0;fontColor=#FF0080;" parent="1" source="_4Hc_P67nSbgnlB6Afqk-7" target="_4Hc_P67nSbgnlB6Afqk-13" edge="1">
          <mxGeometry relative="1" as="geometry" />
        </mxCell>
        <mxCell id="_4Hc_P67nSbgnlB6Afqk-67" value="no" style="edgeStyle=orthogonalEdgeStyle;rounded=0;orthogonalLoop=1;jettySize=auto;html=1;exitX=0;exitY=0.5;exitDx=0;exitDy=0;entryX=0;entryY=0.5;entryDx=0;entryDy=0;fontColor=#FF0080;" parent="1" source="_4Hc_P67nSbgnlB6Afqk-7" target="_4Hc_P67nSbgnlB6Afqk-33" edge="1">
          <mxGeometry relative="1" as="geometry">
            <Array as="points">
              <mxPoint x="-829" y="1387" />
              <mxPoint x="-905" y="1387" />
              <mxPoint x="-905" y="1551" />
            </Array>
          </mxGeometry>
        </mxCell>
        <mxCell id="_4Hc_P67nSbgnlB6Afqk-7" value="是否修改上游水库预报流量&lt;br&gt;重新预报" style="rhombus;whiteSpace=wrap;html=1;rounded=0;" parent="1" vertex="1">
          <mxGeometry x="-828.75" y="1361" width="232.5" height="54" as="geometry" />
        </mxCell>
        <mxCell id="_4Hc_P67nSbgnlB6Afqk-66" style="edgeStyle=orthogonalEdgeStyle;rounded=0;orthogonalLoop=1;jettySize=auto;html=1;exitX=0.5;exitY=1;exitDx=0;exitDy=0;entryX=0.5;entryY=0;entryDx=0;entryDy=0;fontColor=#FF0080;" parent="1" source="_4Hc_P67nSbgnlB6Afqk-13" target="_4Hc_P67nSbgnlB6Afqk-33" edge="1">
          <mxGeometry relative="1" as="geometry" />
        </mxCell>
        <mxCell id="_4Hc_P67nSbgnlB6Afqk-13" value="从数据库读修改后的LBGQ、YPQ的预报结果并覆盖上述预报出的结果" style="whiteSpace=wrap;html=1;rounded=0;" parent="1" vertex="1">
          <mxGeometry x="-835" y="1451" width="245" height="40" as="geometry" />
        </mxCell>
        <mxCell id="_4Hc_P67nSbgnlB6Afqk-63" value="no" style="edgeStyle=orthogonalEdgeStyle;rounded=0;orthogonalLoop=1;jettySize=auto;html=1;exitX=0.5;exitY=1;exitDx=0;exitDy=0;entryX=0.5;entryY=0;entryDx=0;entryDy=0;fontColor=#FF0080;" parent="1" source="_4Hc_P67nSbgnlB6Afqk-17" target="_4Hc_P67nSbgnlB6Afqk-59" edge="1">
          <mxGeometry relative="1" as="geometry" />
        </mxCell>
        <mxCell id="_4Hc_P67nSbgnlB6Afqk-79" value="no" style="edgeStyle=orthogonalEdgeStyle;rounded=0;orthogonalLoop=1;jettySize=auto;html=1;exitX=1;exitY=0.5;exitDx=0;exitDy=0;entryX=0;entryY=0.5;entryDx=0;entryDy=0;fontColor=#FF0080;" parent="1" source="_4Hc_P67nSbgnlB6Afqk-17" target="_4Hc_P67nSbgnlB6Afqk-21" edge="1">
          <mxGeometry relative="1" as="geometry" />
        </mxCell>
        <mxCell id="_4Hc_P67nSbgnlB6Afqk-85" value="yes" style="edgeStyle=orthogonalEdgeStyle;rounded=0;orthogonalLoop=1;jettySize=auto;html=1;fontColor=#FF0080;" parent="1" source="_4Hc_P67nSbgnlB6Afqk-17" target="_4Hc_P67nSbgnlB6Afqk-21" edge="1">
          <mxGeometry relative="1" as="geometry" />
        </mxCell>
        <mxCell id="_4Hc_P67nSbgnlB6Afqk-17" value="是否使用&lt;br&gt;气象预报数据预报" style="rhombus;whiteSpace=wrap;html=1;rounded=0;" parent="1" vertex="1">
          <mxGeometry x="-995" y="1081" width="160" height="56" as="geometry" />
        </mxCell>
        <mxCell id="_4Hc_P67nSbgnlB6Afqk-30" value="yes" style="edgeStyle=orthogonalEdgeStyle;rounded=0;orthogonalLoop=1;jettySize=auto;html=1;" parent="1" source="_4Hc_P67nSbgnlB6Afqk-21" target="_4Hc_P67nSbgnlB6Afqk-29" edge="1">
          <mxGeometry relative="1" as="geometry" />
        </mxCell>
        <mxCell id="_4Hc_P67nSbgnlB6Afqk-62" style="edgeStyle=orthogonalEdgeStyle;rounded=0;orthogonalLoop=1;jettySize=auto;html=1;exitX=0.5;exitY=1;exitDx=0;exitDy=0;fontColor=#FF0080;startArrow=none;entryX=0.5;entryY=0;entryDx=0;entryDy=0;" parent="1" source="_4Hc_P67nSbgnlB6Afqk-64" target="_4Hc_P67nSbgnlB6Afqk-60" edge="1">
          <mxGeometry relative="1" as="geometry">
            <mxPoint x="-482.5" y="1267" as="targetPoint" />
          </mxGeometry>
        </mxCell>
        <mxCell id="_4Hc_P67nSbgnlB6Afqk-21" value="是否使用&lt;br&gt;修改预报数据预报" style="rhombus;whiteSpace=wrap;html=1;rounded=0;" parent="1" vertex="1">
          <mxGeometry x="-795" y="1084" width="200" height="50" as="geometry" />
        </mxCell>
        <mxCell id="_4Hc_P67nSbgnlB6Afqk-86" style="edgeStyle=orthogonalEdgeStyle;rounded=0;orthogonalLoop=1;jettySize=auto;html=1;exitX=0.5;exitY=1;exitDx=0;exitDy=0;entryX=0.5;entryY=0;entryDx=0;entryDy=0;fontColor=#FF0080;" parent="1" source="_4Hc_P67nSbgnlB6Afqk-29" target="_4Hc_P67nSbgnlB6Afqk-60" edge="1">
          <mxGeometry relative="1" as="geometry" />
        </mxCell>
        <mxCell id="_4Hc_P67nSbgnlB6Afqk-29" value="读取全流域修改的气象预报数据" style="whiteSpace=wrap;html=1;rounded=0;" parent="1" vertex="1">
          <mxGeometry x="-783.75" y="1187" width="177.5" height="40" as="geometry" />
        </mxCell>
        <mxCell id="Hks65oOs486y7ewb1TsW-2" value="" style="edgeStyle=orthogonalEdgeStyle;rounded=0;orthogonalLoop=1;jettySize=auto;html=1;" parent="1" source="_4Hc_P67nSbgnlB6Afqk-33" target="Hks65oOs486y7ewb1TsW-1" edge="1">
          <mxGeometry relative="1" as="geometry" />
        </mxCell>
        <mxCell id="_4Hc_P67nSbgnlB6Afqk-33" value="预报TYI的流量" style="whiteSpace=wrap;html=1;rounded=0;" parent="1" vertex="1">
          <mxGeometry x="-835" y="1531" width="245" height="40" as="geometry" />
        </mxCell>
        <mxCell id="_4Hc_P67nSbgnlB6Afqk-43" style="edgeStyle=orthogonalEdgeStyle;rounded=0;orthogonalLoop=1;jettySize=auto;html=1;exitX=0.5;exitY=1;exitDx=0;exitDy=0;entryX=0.5;entryY=0;entryDx=0;entryDy=0;" parent="1" source="_4Hc_P67nSbgnlB6Afqk-39" target="_4Hc_P67nSbgnlB6Afqk-40" edge="1">
          <mxGeometry relative="1" as="geometry" />
        </mxCell>
        <mxCell id="_4Hc_P67nSbgnlB6Afqk-39" value="XLTQ" style="rounded=0;whiteSpace=wrap;html=1;" parent="1" vertex="1">
          <mxGeometry x="-1654" y="405" width="120" height="60" as="geometry" />
        </mxCell>
        <mxCell id="_4Hc_P67nSbgnlB6Afqk-42" value="" style="edgeStyle=orthogonalEdgeStyle;rounded=0;orthogonalLoop=1;jettySize=auto;html=1;" parent="1" source="_4Hc_P67nSbgnlB6Afqk-40" target="_4Hc_P67nSbgnlB6Afqk-41" edge="1">
          <mxGeometry relative="1" as="geometry" />
        </mxCell>
        <mxCell id="_4Hc_P67nSbgnlB6Afqk-40" value="YPI" style="rounded=0;whiteSpace=wrap;html=1;" parent="1" vertex="1">
          <mxGeometry x="-1654" y="495" width="120" height="60" as="geometry" />
        </mxCell>
        <mxCell id="_4Hc_P67nSbgnlB6Afqk-50" style="edgeStyle=orthogonalEdgeStyle;rounded=0;orthogonalLoop=1;jettySize=auto;html=1;exitX=0.5;exitY=1;exitDx=0;exitDy=0;entryX=0.5;entryY=0;entryDx=0;entryDy=0;" parent="1" source="_4Hc_P67nSbgnlB6Afqk-41" target="_4Hc_P67nSbgnlB6Afqk-48" edge="1">
          <mxGeometry relative="1" as="geometry" />
        </mxCell>
        <mxCell id="_4Hc_P67nSbgnlB6Afqk-41" value="YPQ" style="rounded=0;whiteSpace=wrap;html=1;labelBorderColor=none;fontColor=#FF0080;fontStyle=1" parent="1" vertex="1">
          <mxGeometry x="-1654" y="585" width="120" height="60" as="geometry" />
        </mxCell>
        <mxCell id="_4Hc_P67nSbgnlB6Afqk-49" style="edgeStyle=orthogonalEdgeStyle;rounded=0;orthogonalLoop=1;jettySize=auto;html=1;exitX=0.5;exitY=1;exitDx=0;exitDy=0;entryX=0.5;entryY=0;entryDx=0;entryDy=0;" parent="1" source="_4Hc_P67nSbgnlB6Afqk-44" target="_4Hc_P67nSbgnlB6Afqk-45" edge="1">
          <mxGeometry relative="1" as="geometry" />
        </mxCell>
        <mxCell id="_4Hc_P67nSbgnlB6Afqk-44" value="LBGI" style="rounded=0;whiteSpace=wrap;html=1;" parent="1" vertex="1">
          <mxGeometry x="-1514" y="495" width="120" height="60" as="geometry" />
        </mxCell>
        <mxCell id="_4Hc_P67nSbgnlB6Afqk-51" style="edgeStyle=orthogonalEdgeStyle;rounded=0;orthogonalLoop=1;jettySize=auto;html=1;exitX=0.5;exitY=1;exitDx=0;exitDy=0;" parent="1" source="_4Hc_P67nSbgnlB6Afqk-45" edge="1">
          <mxGeometry relative="1" as="geometry">
            <mxPoint x="-1384" y="705" as="targetPoint" />
          </mxGeometry>
        </mxCell>
        <mxCell id="_4Hc_P67nSbgnlB6Afqk-45" value="LBGQ" style="rounded=0;whiteSpace=wrap;html=1;labelBorderColor=none;fontColor=#FF0080;fontStyle=1" parent="1" vertex="1">
          <mxGeometry x="-1514" y="585" width="120" height="60" as="geometry" />
        </mxCell>
        <mxCell id="_4Hc_P67nSbgnlB6Afqk-52" style="edgeStyle=orthogonalEdgeStyle;rounded=0;orthogonalLoop=1;jettySize=auto;html=1;exitX=0.5;exitY=1;exitDx=0;exitDy=0;" parent="1" source="_4Hc_P67nSbgnlB6Afqk-46" edge="1">
          <mxGeometry relative="1" as="geometry">
            <mxPoint x="-1384" y="705" as="targetPoint" />
          </mxGeometry>
        </mxCell>
        <mxCell id="_4Hc_P67nSbgnlB6Afqk-46" value="MJQ" style="rounded=0;whiteSpace=wrap;html=1;" parent="1" vertex="1">
          <mxGeometry x="-1374" y="585" width="120" height="60" as="geometry" />
        </mxCell>
        <mxCell id="_4Hc_P67nSbgnlB6Afqk-53" style="edgeStyle=orthogonalEdgeStyle;rounded=0;orthogonalLoop=1;jettySize=auto;html=1;exitX=0.5;exitY=1;exitDx=0;exitDy=0;" parent="1" source="_4Hc_P67nSbgnlB6Afqk-47" edge="1">
          <mxGeometry relative="1" as="geometry">
            <mxPoint x="-1384" y="705" as="targetPoint" />
          </mxGeometry>
        </mxCell>
        <mxCell id="_4Hc_P67nSbgnlB6Afqk-47" value="MLQ" style="rounded=0;whiteSpace=wrap;html=1;" parent="1" vertex="1">
          <mxGeometry x="-1234" y="585" width="120" height="60" as="geometry" />
        </mxCell>
        <mxCell id="_4Hc_P67nSbgnlB6Afqk-48" value="TYI" style="rounded=0;whiteSpace=wrap;html=1;" parent="1" vertex="1">
          <mxGeometry x="-1444" y="705" width="120" height="60" as="geometry" />
        </mxCell>
        <mxCell id="_4Hc_P67nSbgnlB6Afqk-75" style="edgeStyle=orthogonalEdgeStyle;rounded=0;orthogonalLoop=1;jettySize=auto;html=1;exitX=0.5;exitY=1;exitDx=0;exitDy=0;fontColor=#FF0080;" parent="1" source="_4Hc_P67nSbgnlB6Afqk-59" target="_4Hc_P67nSbgnlB6Afqk-60" edge="1">
          <mxGeometry relative="1" as="geometry" />
        </mxCell>
        <mxCell id="_4Hc_P67nSbgnlB6Afqk-59" value="设置未来72小时气象预报数据降雨为0，蒸发为过去的数据" style="whiteSpace=wrap;html=1;rounded=0;" parent="1" vertex="1">
          <mxGeometry x="-1010" y="1187" width="190" height="40" as="geometry" />
        </mxCell>
        <mxCell id="_4Hc_P67nSbgnlB6Afqk-73" style="edgeStyle=orthogonalEdgeStyle;rounded=0;orthogonalLoop=1;jettySize=auto;html=1;exitX=0.5;exitY=1;exitDx=0;exitDy=0;entryX=0.5;entryY=0;entryDx=0;entryDy=0;fontColor=#FF0080;" parent="1" source="_4Hc_P67nSbgnlB6Afqk-60" target="_4Hc_P67nSbgnlB6Afqk-7" edge="1">
          <mxGeometry relative="1" as="geometry" />
        </mxCell>
        <mxCell id="_4Hc_P67nSbgnlB6Afqk-60" value="全流域预报获得&lt;br&gt;YPQ、LBGQ、MJQ、MLQ预报结果" style="whiteSpace=wrap;html=1;rounded=0;" parent="1" vertex="1">
          <mxGeometry x="-821.25" y="1291" width="215" height="40" as="geometry" />
        </mxCell>
        <mxCell id="_4Hc_P67nSbgnlB6Afqk-64" value="获取TYI的原始气象预报数据" style="whiteSpace=wrap;html=1;rounded=0;" parent="1" vertex="1">
          <mxGeometry x="-565" y="1187" width="165" height="40" as="geometry" />
        </mxCell>
        <mxCell id="_4Hc_P67nSbgnlB6Afqk-65" value="" style="edgeStyle=orthogonalEdgeStyle;rounded=0;orthogonalLoop=1;jettySize=auto;html=1;exitX=1;exitY=0.5;exitDx=0;exitDy=0;fontColor=#FF0080;endArrow=none;" parent="1" source="_4Hc_P67nSbgnlB6Afqk-21" target="_4Hc_P67nSbgnlB6Afqk-64" edge="1">
          <mxGeometry relative="1" as="geometry">
            <mxPoint x="-595" y="1109" as="sourcePoint" />
            <mxPoint x="-467.5" y="1267" as="targetPoint" />
          </mxGeometry>
        </mxCell>
        <mxCell id="_4Hc_P67nSbgnlB6Afqk-80" value="no" style="edgeLabel;html=1;align=center;verticalAlign=middle;resizable=0;points=[];fontColor=#FF0080;" parent="_4Hc_P67nSbgnlB6Afqk-65" vertex="1" connectable="0">
          <mxGeometry x="-0.2861" y="3" relative="1" as="geometry">
            <mxPoint as="offset" />
          </mxGeometry>
        </mxCell>
        <mxCell id="_4Hc_P67nSbgnlB6Afqk-72" value="结束" style="rounded=1;whiteSpace=wrap;html=1;fontColor=#FF0080;align=center;" parent="1" vertex="1">
          <mxGeometry x="-756.25" y="1691" width="87.5" height="40" as="geometry" />
        </mxCell>
        <mxCell id="Hks65oOs486y7ewb1TsW-3" style="edgeStyle=orthogonalEdgeStyle;rounded=0;orthogonalLoop=1;jettySize=auto;html=1;exitX=0.5;exitY=1;exitDx=0;exitDy=0;" parent="1" source="Hks65oOs486y7ewb1TsW-1" target="_4Hc_P67nSbgnlB6Afqk-72" edge="1">
          <mxGeometry relative="1" as="geometry" />
        </mxCell>
        <mxCell id="Hks65oOs486y7ewb1TsW-1" value="根据是否为自动预报，保存到不同数据库" style="whiteSpace=wrap;html=1;rounded=0;" parent="1" vertex="1">
          <mxGeometry x="-835" y="1611" width="245" height="40" as="geometry" />
        </mxCell>
        <mxCell id="l1AshoZJ0C4mU3mJfbrx-6" style="edgeStyle=orthogonalEdgeStyle;rounded=0;orthogonalLoop=1;jettySize=auto;html=1;exitX=0.5;exitY=1;exitDx=0;exitDy=0;entryX=0.5;entryY=0;entryDx=0;entryDy=0;" parent="1" source="l1AshoZJ0C4mU3mJfbrx-2" target="l1AshoZJ0C4mU3mJfbrx-5" edge="1">
          <mxGeometry relative="1" as="geometry" />
        </mxCell>
        <mxCell id="l1AshoZJ0C4mU3mJfbrx-2" value="模拟期实测数据" style="rounded=0;whiteSpace=wrap;html=1;" parent="1" vertex="1">
          <mxGeometry x="-2131" y="2002" width="86.5" height="38" as="geometry" />
        </mxCell>
        <mxCell id="l1AshoZJ0C4mU3mJfbrx-7" style="edgeStyle=orthogonalEdgeStyle;rounded=0;orthogonalLoop=1;jettySize=auto;html=1;exitX=0.5;exitY=1;exitDx=0;exitDy=0;entryX=0.5;entryY=0;entryDx=0;entryDy=0;" parent="1" source="l1AshoZJ0C4mU3mJfbrx-3" target="l1AshoZJ0C4mU3mJfbrx-5" edge="1">
          <mxGeometry relative="1" as="geometry" />
        </mxCell>
        <mxCell id="l1AshoZJ0C4mU3mJfbrx-3" value="warm状态" style="rounded=0;whiteSpace=wrap;html=1;" parent="1" vertex="1">
          <mxGeometry x="-2029" y="2002" width="76.5" height="38" as="geometry" />
        </mxCell>
        <mxCell id="l1AshoZJ0C4mU3mJfbrx-10" style="edgeStyle=orthogonalEdgeStyle;rounded=0;orthogonalLoop=1;jettySize=auto;html=1;exitX=0.5;exitY=1;exitDx=0;exitDy=0;entryX=0.5;entryY=0;entryDx=0;entryDy=0;" parent="1" source="l1AshoZJ0C4mU3mJfbrx-5" target="l1AshoZJ0C4mU3mJfbrx-8" edge="1">
          <mxGeometry relative="1" as="geometry" />
        </mxCell>
        <mxCell id="l1AshoZJ0C4mU3mJfbrx-11" style="edgeStyle=orthogonalEdgeStyle;rounded=0;orthogonalLoop=1;jettySize=auto;html=1;exitX=0.5;exitY=1;exitDx=0;exitDy=0;entryX=0.5;entryY=0;entryDx=0;entryDy=0;" parent="1" source="l1AshoZJ0C4mU3mJfbrx-5" target="l1AshoZJ0C4mU3mJfbrx-9" edge="1">
          <mxGeometry relative="1" as="geometry" />
        </mxCell>
        <mxCell id="l1AshoZJ0C4mU3mJfbrx-5" value="running" style="rounded=0;whiteSpace=wrap;html=1;" parent="1" vertex="1">
          <mxGeometry x="-2101" y="2102" width="130" height="40" as="geometry" />
        </mxCell>
        <mxCell id="l1AshoZJ0C4mU3mJfbrx-8" value="模拟流量" style="rounded=0;whiteSpace=wrap;html=1;" parent="1" vertex="1">
          <mxGeometry x="-2155" y="2192" width="95" height="38" as="geometry" />
        </mxCell>
        <mxCell id="l1AshoZJ0C4mU3mJfbrx-9" value="模拟期的状态" style="rounded=0;whiteSpace=wrap;html=1;" parent="1" vertex="1">
          <mxGeometry x="-2031" y="2192" width="91" height="38" as="geometry" />
        </mxCell>
        <mxCell id="l1AshoZJ0C4mU3mJfbrx-12" value="预报&lt;br&gt;forecast" style="rounded=0;whiteSpace=wrap;html=1;" parent="1" vertex="1">
          <mxGeometry x="-1584" y="1898" width="110" height="40" as="geometry" />
        </mxCell>
        <mxCell id="NCntrkOaTtiR4dya-rGu-5" style="edgeStyle=orthogonalEdgeStyle;rounded=0;orthogonalLoop=1;jettySize=auto;html=1;exitX=0.5;exitY=1;exitDx=0;exitDy=0;entryX=0.5;entryY=0;entryDx=0;entryDy=0;" parent="1" source="l1AshoZJ0C4mU3mJfbrx-19" target="NCntrkOaTtiR4dya-rGu-3" edge="1">
          <mxGeometry relative="1" as="geometry" />
        </mxCell>
        <mxCell id="l1AshoZJ0C4mU3mJfbrx-19" value="harf_running" style="rounded=0;whiteSpace=wrap;html=1;" parent="1" vertex="1">
          <mxGeometry x="-1591.5" y="2102" width="130" height="40" as="geometry" />
        </mxCell>
        <mxCell id="l1AshoZJ0C4mU3mJfbrx-31" style="edgeStyle=orthogonalEdgeStyle;rounded=0;orthogonalLoop=1;jettySize=auto;html=1;exitX=0.5;exitY=1;exitDx=0;exitDy=0;" parent="1" source="l1AshoZJ0C4mU3mJfbrx-20" target="l1AshoZJ0C4mU3mJfbrx-21" edge="1">
          <mxGeometry relative="1" as="geometry" />
        </mxCell>
        <mxCell id="l1AshoZJ0C4mU3mJfbrx-20" value="ty_running" style="rounded=0;whiteSpace=wrap;html=1;" parent="1" vertex="1">
          <mxGeometry x="-1594" y="2240" width="130" height="40" as="geometry" />
        </mxCell>
        <mxCell id="l1AshoZJ0C4mU3mJfbrx-21" value="预报流量" style="rounded=0;whiteSpace=wrap;html=1;" parent="1" vertex="1">
          <mxGeometry x="-1594" y="2310" width="130" height="40" as="geometry" />
        </mxCell>
        <mxCell id="l1AshoZJ0C4mU3mJfbrx-33" value="参数率定&lt;br&gt;caliberate" style="rounded=0;whiteSpace=wrap;html=1;" parent="1" vertex="1">
          <mxGeometry x="-2860" y="1910" width="100" height="40" as="geometry" />
        </mxCell>
        <mxCell id="cCYQIvM1xQURCpns52On-3" value="" style="group" parent="1" vertex="1" connectable="0">
          <mxGeometry x="-2430" y="370" width="670" height="550" as="geometry" />
        </mxCell>
        <mxCell id="cCYQIvM1xQURCpns52On-1" value="" style="rounded=0;whiteSpace=wrap;html=1;fillColor=#f5f5f5;strokeColor=#666666;fontColor=#333333;" parent="cCYQIvM1xQURCpns52On-3" vertex="1">
          <mxGeometry y="-3" width="670" height="550" as="geometry" />
        </mxCell>
        <mxCell id="4lZ4v5UjHv-Yfsmr3oEd-15" value="" style="rounded=0;whiteSpace=wrap;html=1;" parent="cCYQIvM1xQURCpns52On-3" vertex="1">
          <mxGeometry x="350" y="50" width="80" height="230" as="geometry" />
        </mxCell>
        <mxCell id="4lZ4v5UjHv-Yfsmr3oEd-16" value="warm" style="text;html=1;strokeColor=none;fillColor=none;align=center;verticalAlign=middle;whiteSpace=wrap;rounded=0;" parent="cCYQIvM1xQURCpns52On-3" vertex="1">
          <mxGeometry x="290" y="40" width="40" height="20" as="geometry" />
        </mxCell>
        <mxCell id="4lZ4v5UjHv-Yfsmr3oEd-17" value="n_warm housr" style="text;html=1;strokeColor=none;fillColor=none;align=center;verticalAlign=middle;whiteSpace=wrap;rounded=0;" parent="cCYQIvM1xQURCpns52On-3" vertex="1">
          <mxGeometry x="250" y="150" width="90" height="20" as="geometry" />
        </mxCell>
        <mxCell id="4lZ4v5UjHv-Yfsmr3oEd-18" value="P_start" style="text;html=1;strokeColor=none;fillColor=none;align=center;verticalAlign=middle;whiteSpace=wrap;rounded=0;" parent="cCYQIvM1xQURCpns52On-3" vertex="1">
          <mxGeometry x="290" y="262" width="40" height="20" as="geometry" />
        </mxCell>
        <mxCell id="4lZ4v5UjHv-Yfsmr3oEd-19" value="" style="rounded=0;whiteSpace=wrap;html=1;" parent="cCYQIvM1xQURCpns52On-3" vertex="1">
          <mxGeometry x="350" y="280" width="80" height="70" as="geometry" />
        </mxCell>
        <mxCell id="4lZ4v5UjHv-Yfsmr3oEd-20" value="P_stop" style="text;html=1;strokeColor=none;fillColor=none;align=center;verticalAlign=middle;whiteSpace=wrap;rounded=0;" parent="cCYQIvM1xQURCpns52On-3" vertex="1">
          <mxGeometry x="290" y="336" width="40" height="20" as="geometry" />
        </mxCell>
        <mxCell id="4lZ4v5UjHv-Yfsmr3oEd-21" value="" style="rounded=0;whiteSpace=wrap;html=1;" parent="cCYQIvM1xQURCpns52On-3" vertex="1">
          <mxGeometry x="350" y="350" width="80" height="90" as="geometry" />
        </mxCell>
        <mxCell id="4lZ4v5UjHv-Yfsmr3oEd-22" value="te" style="text;html=1;strokeColor=none;fillColor=none;align=center;verticalAlign=middle;whiteSpace=wrap;rounded=0;" parent="cCYQIvM1xQURCpns52On-3" vertex="1">
          <mxGeometry x="300" y="420" width="40" height="20" as="geometry" />
        </mxCell>
        <mxCell id="4lZ4v5UjHv-Yfsmr3oEd-24" value="" style="strokeWidth=2;html=1;shape=mxgraph.flowchart.annotation_2;align=left;labelPosition=right;pointerEvents=1;" parent="cCYQIvM1xQURCpns52On-3" vertex="1">
          <mxGeometry x="170" y="50" width="50" height="290" as="geometry" />
        </mxCell>
        <mxCell id="4lZ4v5UjHv-Yfsmr3oEd-25" value="降雨数据P" style="text;html=1;strokeColor=none;fillColor=none;align=center;verticalAlign=middle;whiteSpace=wrap;rounded=0;" parent="cCYQIvM1xQURCpns52On-3" vertex="1">
          <mxGeometry x="10" y="267.5" width="70" height="45" as="geometry" />
        </mxCell>
        <mxCell id="4lZ4v5UjHv-Yfsmr3oEd-26" value="" style="strokeWidth=2;html=1;shape=mxgraph.flowchart.annotation_2;align=left;labelPosition=right;pointerEvents=1;" parent="cCYQIvM1xQURCpns52On-3" vertex="1">
          <mxGeometry x="170" y="350" width="50" height="80" as="geometry" />
        </mxCell>
        <mxCell id="4lZ4v5UjHv-Yfsmr3oEd-27" value="" style="strokeWidth=2;html=1;shape=mxgraph.flowchart.annotation_2;align=left;labelPosition=right;pointerEvents=1;" parent="cCYQIvM1xQURCpns52On-3" vertex="1">
          <mxGeometry x="90" y="190" width="50" height="200" as="geometry" />
        </mxCell>
        <mxCell id="4lZ4v5UjHv-Yfsmr3oEd-30" value="" style="strokeWidth=2;html=1;shape=mxgraph.flowchart.annotation_2;align=left;labelPosition=right;pointerEvents=1;rotation=-180;" parent="cCYQIvM1xQURCpns52On-3" vertex="1">
          <mxGeometry x="500" y="45" width="30" height="300" as="geometry" />
        </mxCell>
        <mxCell id="4lZ4v5UjHv-Yfsmr3oEd-31" value="" style="strokeWidth=2;html=1;shape=mxgraph.flowchart.annotation_2;align=left;labelPosition=right;pointerEvents=1;rotation=-180;" parent="cCYQIvM1xQURCpns52On-3" vertex="1">
          <mxGeometry x="500" y="352.5" width="30" height="87.5" as="geometry" />
        </mxCell>
        <mxCell id="4lZ4v5UjHv-Yfsmr3oEd-32" value="2016同期数据" style="rounded=0;whiteSpace=wrap;html=1;labelBorderColor=#66FFFF;fillColor=#dae8fc;strokeColor=#6c8ebf;" parent="cCYQIvM1xQURCpns52On-3" vertex="1">
          <mxGeometry x="450" y="50" width="30" height="390" as="geometry" />
        </mxCell>
        <mxCell id="4lZ4v5UjHv-Yfsmr3oEd-33" value="" style="strokeWidth=2;html=1;shape=mxgraph.flowchart.annotation_2;align=left;labelPosition=right;pointerEvents=1;rotation=-180;" parent="cCYQIvM1xQURCpns52On-3" vertex="1">
          <mxGeometry x="570" y="196" width="30" height="196" as="geometry" />
        </mxCell>
        <mxCell id="4lZ4v5UjHv-Yfsmr3oEd-34" value="蒸发数据E" style="text;html=1;strokeColor=none;fillColor=none;align=center;verticalAlign=middle;whiteSpace=wrap;rounded=0;" parent="cCYQIvM1xQURCpns52On-3" vertex="1">
          <mxGeometry x="600" y="279.5" width="70" height="29" as="geometry" />
        </mxCell>
        <mxCell id="4lZ4v5UjHv-Yfsmr3oEd-35" value="采用个时间的状态变量" style="text;html=1;strokeColor=none;fillColor=none;align=center;verticalAlign=middle;whiteSpace=wrap;rounded=0;fontStyle=1;fontColor=#FF0080;" parent="cCYQIvM1xQURCpns52On-3" vertex="1">
          <mxGeometry x="540" y="20" width="70" height="40" as="geometry" />
        </mxCell>
        <mxCell id="4lZ4v5UjHv-Yfsmr3oEd-36" value="结果时间段：P_start - te" style="rounded=0;whiteSpace=wrap;html=1;fontColor=#4C0099;" parent="cCYQIvM1xQURCpns52On-3" vertex="1">
          <mxGeometry x="220" y="480" width="280" height="50" as="geometry" />
        </mxCell>
        <mxCell id="4lZ4v5UjHv-Yfsmr3oEd-37" value="P0" style="text;html=1;strokeColor=none;fillColor=none;align=center;verticalAlign=middle;whiteSpace=wrap;rounded=0;fontColor=#4C0099;" parent="cCYQIvM1xQURCpns52On-3" vertex="1">
          <mxGeometry x="140" y="185" width="40" height="20" as="geometry" />
        </mxCell>
        <mxCell id="4lZ4v5UjHv-Yfsmr3oEd-38" value="P1" style="text;html=1;strokeColor=none;fillColor=none;align=center;verticalAlign=middle;whiteSpace=wrap;rounded=0;fontColor=#4C0099;" parent="cCYQIvM1xQURCpns52On-3" vertex="1">
          <mxGeometry x="140" y="380" width="40" height="20" as="geometry" />
        </mxCell>
        <mxCell id="4lZ4v5UjHv-Yfsmr3oEd-39" value="P0" style="text;html=1;strokeColor=none;fillColor=none;align=center;verticalAlign=middle;whiteSpace=wrap;rounded=0;fontColor=#4C0099;" parent="cCYQIvM1xQURCpns52On-3" vertex="1">
          <mxGeometry x="530" y="185" width="40" height="20" as="geometry" />
        </mxCell>
        <mxCell id="4lZ4v5UjHv-Yfsmr3oEd-40" value="P1" style="text;html=1;strokeColor=none;fillColor=none;align=center;verticalAlign=middle;whiteSpace=wrap;rounded=0;fontColor=#4C0099;" parent="cCYQIvM1xQURCpns52On-3" vertex="1">
          <mxGeometry x="530" y="386.25" width="40" height="20" as="geometry" />
        </mxCell>
        <mxCell id="cCYQIvM1xQURCpns52On-2" value="落地雨检测手动预报" style="text;html=1;strokeColor=none;fillColor=none;align=center;verticalAlign=middle;whiteSpace=wrap;rounded=0;" parent="cCYQIvM1xQURCpns52On-3" vertex="1">
          <mxGeometry width="110" height="30" as="geometry" />
        </mxCell>
        <mxCell id="cCYQIvM1xQURCpns52On-5" value="上下游关系" style="text;html=1;align=center;verticalAlign=middle;whiteSpace=wrap;rounded=0;" parent="1" vertex="1">
          <mxGeometry x="-1690" y="370" width="70" height="30" as="geometry" />
        </mxCell>
        <mxCell id="cCYQIvM1xQURCpns52On-52" style="edgeStyle=orthogonalEdgeStyle;rounded=0;orthogonalLoop=1;jettySize=auto;html=1;exitX=0.5;exitY=1;exitDx=0;exitDy=0;entryX=0.5;entryY=0;entryDx=0;entryDy=0;" parent="1" source="cCYQIvM1xQURCpns52On-51" target="l1AshoZJ0C4mU3mJfbrx-5" edge="1">
          <mxGeometry relative="1" as="geometry" />
        </mxCell>
        <mxCell id="cCYQIvM1xQURCpns52On-51" value="上游站点的状态变量" style="rounded=0;whiteSpace=wrap;html=1;" parent="1" vertex="1">
          <mxGeometry x="-1938" y="2004" width="116.5" height="36" as="geometry" />
        </mxCell>
        <mxCell id="cCYQIvM1xQURCpns52On-54" style="edgeStyle=orthogonalEdgeStyle;rounded=0;orthogonalLoop=1;jettySize=auto;html=1;exitX=0.5;exitY=1;exitDx=0;exitDy=0;entryX=0.5;entryY=0;entryDx=0;entryDy=0;" parent="1" source="cCYQIvM1xQURCpns52On-53" target="l1AshoZJ0C4mU3mJfbrx-5" edge="1">
          <mxGeometry relative="1" as="geometry" />
        </mxCell>
        <mxCell id="cCYQIvM1xQURCpns52On-53" value="预热期实测数据" style="rounded=0;whiteSpace=wrap;html=1;" parent="1" vertex="1">
          <mxGeometry x="-2241.5" y="2002" width="86.5" height="38" as="geometry" />
        </mxCell>
        <mxCell id="cCYQIvM1xQURCpns52On-60" style="edgeStyle=orthogonalEdgeStyle;rounded=0;orthogonalLoop=1;jettySize=auto;html=1;exitX=0.5;exitY=1;exitDx=0;exitDy=0;entryX=0.5;entryY=0;entryDx=0;entryDy=0;" parent="1" source="cCYQIvM1xQURCpns52On-55" target="l1AshoZJ0C4mU3mJfbrx-19" edge="1">
          <mxGeometry relative="1" as="geometry">
            <mxPoint x="-1701.5" y="2100" as="targetPoint" />
          </mxGeometry>
        </mxCell>
        <mxCell id="cCYQIvM1xQURCpns52On-55" value="降雨和蒸发数据" style="rounded=0;whiteSpace=wrap;html=1;" parent="1" vertex="1">
          <mxGeometry x="-1569.75" y="2001" width="86.5" height="38" as="geometry" />
        </mxCell>
        <mxCell id="cCYQIvM1xQURCpns52On-61" style="edgeStyle=orthogonalEdgeStyle;rounded=0;orthogonalLoop=1;jettySize=auto;html=1;exitX=0.5;exitY=1;exitDx=0;exitDy=0;entryX=0.5;entryY=0;entryDx=0;entryDy=0;" parent="1" source="cCYQIvM1xQURCpns52On-56" target="l1AshoZJ0C4mU3mJfbrx-19" edge="1">
          <mxGeometry relative="1" as="geometry" />
        </mxCell>
        <mxCell id="cCYQIvM1xQURCpns52On-56" value="warm状态" style="rounded=0;whiteSpace=wrap;html=1;" parent="1" vertex="1">
          <mxGeometry x="-1450.5" y="2002" width="76.5" height="38" as="geometry" />
        </mxCell>
        <mxCell id="cCYQIvM1xQURCpns52On-59" style="edgeStyle=orthogonalEdgeStyle;rounded=0;orthogonalLoop=1;jettySize=auto;html=1;exitX=0.5;exitY=1;exitDx=0;exitDy=0;entryX=0.5;entryY=0;entryDx=0;entryDy=0;" parent="1" source="cCYQIvM1xQURCpns52On-58" target="l1AshoZJ0C4mU3mJfbrx-19" edge="1">
          <mxGeometry relative="1" as="geometry" />
        </mxCell>
        <mxCell id="cCYQIvM1xQURCpns52On-58" value="预热期实测数据" style="rounded=0;whiteSpace=wrap;html=1;" parent="1" vertex="1">
          <mxGeometry x="-1683.25" y="2002" width="86.5" height="38" as="geometry" />
        </mxCell>
        <mxCell id="cCYQIvM1xQURCpns52On-80" style="edgeStyle=orthogonalEdgeStyle;rounded=0;orthogonalLoop=1;jettySize=auto;html=1;exitX=0.5;exitY=1;exitDx=0;exitDy=0;" parent="1" source="cCYQIvM1xQURCpns52On-63" target="cCYQIvM1xQURCpns52On-65" edge="1">
          <mxGeometry relative="1" as="geometry" />
        </mxCell>
        <mxCell id="cCYQIvM1xQURCpns52On-63" value="起始状态、参数域等默认参数" style="rounded=0;whiteSpace=wrap;html=1;" parent="1" vertex="1">
          <mxGeometry x="-2980" y="2002" width="90" height="38" as="geometry" />
        </mxCell>
        <mxCell id="cCYQIvM1xQURCpns52On-81" style="edgeStyle=orthogonalEdgeStyle;rounded=0;orthogonalLoop=1;jettySize=auto;html=1;exitX=0.5;exitY=1;exitDx=0;exitDy=0;entryX=0.5;entryY=0;entryDx=0;entryDy=0;" parent="1" source="cCYQIvM1xQURCpns52On-64" target="cCYQIvM1xQURCpns52On-65" edge="1">
          <mxGeometry relative="1" as="geometry" />
        </mxCell>
        <mxCell id="cCYQIvM1xQURCpns52On-64" value="用户指定率定期" style="rounded=0;whiteSpace=wrap;html=1;" parent="1" vertex="1">
          <mxGeometry x="-2860" y="2002" width="100" height="38" as="geometry" />
        </mxCell>
        <mxCell id="cCYQIvM1xQURCpns52On-83" style="edgeStyle=orthogonalEdgeStyle;rounded=0;orthogonalLoop=1;jettySize=auto;html=1;exitX=0.5;exitY=1;exitDx=0;exitDy=0;entryX=0.5;entryY=0;entryDx=0;entryDy=0;" parent="1" source="cCYQIvM1xQURCpns52On-65" target="cCYQIvM1xQURCpns52On-67" edge="1">
          <mxGeometry relative="1" as="geometry" />
        </mxCell>
        <mxCell id="cCYQIvM1xQURCpns52On-65" value="率定程序" style="rounded=0;whiteSpace=wrap;html=1;" parent="1" vertex="1">
          <mxGeometry x="-2860" y="2090" width="100" height="38" as="geometry" />
        </mxCell>
        <mxCell id="cCYQIvM1xQURCpns52On-82" style="edgeStyle=orthogonalEdgeStyle;rounded=0;orthogonalLoop=1;jettySize=auto;html=1;exitX=0.5;exitY=1;exitDx=0;exitDy=0;entryX=0.5;entryY=0;entryDx=0;entryDy=0;" parent="1" source="cCYQIvM1xQURCpns52On-66" target="cCYQIvM1xQURCpns52On-65" edge="1">
          <mxGeometry relative="1" as="geometry" />
        </mxCell>
        <mxCell id="cCYQIvM1xQURCpns52On-66" value="洪水数据" style="rounded=0;whiteSpace=wrap;html=1;" parent="1" vertex="1">
          <mxGeometry x="-2730" y="2002" width="100" height="38" as="geometry" />
        </mxCell>
        <mxCell id="cCYQIvM1xQURCpns52On-67" value="参数 和 指标值" style="rounded=0;whiteSpace=wrap;html=1;" parent="1" vertex="1">
          <mxGeometry x="-2860" y="2172" width="100" height="38" as="geometry" />
        </mxCell>
        <mxCell id="cCYQIvM1xQURCpns52On-68" value="率定期prepare_running" style="rounded=0;whiteSpace=wrap;html=1;" parent="1" vertex="1">
          <mxGeometry x="-2500" y="1910" width="100" height="38" as="geometry" />
        </mxCell>
        <mxCell id="cCYQIvM1xQURCpns52On-76" style="edgeStyle=orthogonalEdgeStyle;rounded=0;orthogonalLoop=1;jettySize=auto;html=1;exitX=0.5;exitY=1;exitDx=0;exitDy=0;entryX=0.5;entryY=0;entryDx=0;entryDy=0;" parent="1" source="cCYQIvM1xQURCpns52On-69" target="cCYQIvM1xQURCpns52On-72" edge="1">
          <mxGeometry relative="1" as="geometry" />
        </mxCell>
        <mxCell id="cCYQIvM1xQURCpns52On-69" value="率定期实测数据" style="rounded=0;whiteSpace=wrap;html=1;" parent="1" vertex="1">
          <mxGeometry x="-2570" y="2001" width="86.5" height="38" as="geometry" />
        </mxCell>
        <mxCell id="cCYQIvM1xQURCpns52On-77" style="edgeStyle=orthogonalEdgeStyle;rounded=0;orthogonalLoop=1;jettySize=auto;html=1;exitX=0.5;exitY=1;exitDx=0;exitDy=0;entryX=0.5;entryY=0;entryDx=0;entryDy=0;" parent="1" source="cCYQIvM1xQURCpns52On-70" target="cCYQIvM1xQURCpns52On-72" edge="1">
          <mxGeometry relative="1" as="geometry" />
        </mxCell>
        <mxCell id="cCYQIvM1xQURCpns52On-70" value="站点参数" style="rounded=0;whiteSpace=wrap;html=1;" parent="1" vertex="1">
          <mxGeometry x="-2450" y="2000" width="70" height="40" as="geometry" />
        </mxCell>
        <mxCell id="cCYQIvM1xQURCpns52On-78" style="edgeStyle=orthogonalEdgeStyle;rounded=0;orthogonalLoop=1;jettySize=auto;html=1;exitX=0.5;exitY=1;exitDx=0;exitDy=0;entryX=0.5;entryY=0;entryDx=0;entryDy=0;" parent="1" source="cCYQIvM1xQURCpns52On-72" target="cCYQIvM1xQURCpns52On-73" edge="1">
          <mxGeometry relative="1" as="geometry" />
        </mxCell>
        <mxCell id="cCYQIvM1xQURCpns52On-79" style="edgeStyle=orthogonalEdgeStyle;rounded=0;orthogonalLoop=1;jettySize=auto;html=1;exitX=0.5;exitY=1;exitDx=0;exitDy=0;" parent="1" source="cCYQIvM1xQURCpns52On-72" target="cCYQIvM1xQURCpns52On-74" edge="1">
          <mxGeometry relative="1" as="geometry" />
        </mxCell>
        <mxCell id="cCYQIvM1xQURCpns52On-72" value="prepare_running程序" style="rounded=0;whiteSpace=wrap;html=1;" parent="1" vertex="1">
          <mxGeometry x="-2500" y="2080" width="100" height="38" as="geometry" />
        </mxCell>
        <mxCell id="cCYQIvM1xQURCpns52On-73" value="率定期模拟流量" style="rounded=0;whiteSpace=wrap;html=1;" parent="1" vertex="1">
          <mxGeometry x="-2570" y="2174" width="100" height="38" as="geometry" />
        </mxCell>
        <mxCell id="cCYQIvM1xQURCpns52On-74" value="率定期状态" style="rounded=0;whiteSpace=wrap;html=1;" parent="1" vertex="1">
          <mxGeometry x="-2410" y="2174" width="100" height="38" as="geometry" />
        </mxCell>
        <mxCell id="BKTpE5ZPr7_NbWnBAb7e-12" value="" style="endArrow=classic;html=1;" parent="1" edge="1">
          <mxGeometry width="50" height="50" relative="1" as="geometry">
            <mxPoint x="-1490" y="1880" as="sourcePoint" />
            <mxPoint x="-1080" y="1700" as="targetPoint" />
          </mxGeometry>
        </mxCell>
        <mxCell id="IxQoelx6kAWSLL4yI0PP-1" value="" style="endArrow=none;html=1;strokeWidth=7;" parent="1" edge="1">
          <mxGeometry width="50" height="50" relative="1" as="geometry">
            <mxPoint x="-1770" y="1167" as="sourcePoint" />
            <mxPoint x="-1611.75" y="1167" as="targetPoint" />
          </mxGeometry>
        </mxCell>
        <mxCell id="IxQoelx6kAWSLL4yI0PP-2" value="" style="endArrow=none;html=1;strokeWidth=7;" parent="1" edge="1">
          <mxGeometry width="50" height="50" relative="1" as="geometry">
            <mxPoint x="-1770" y="1208" as="sourcePoint" />
            <mxPoint x="-1611.75" y="1208" as="targetPoint" />
          </mxGeometry>
        </mxCell>
        <mxCell id="IxQoelx6kAWSLL4yI0PP-3" value="" style="endArrow=none;html=1;strokeWidth=7;" parent="1" edge="1">
          <mxGeometry width="50" height="50" relative="1" as="geometry">
            <mxPoint x="-1720" y="1251" as="sourcePoint" />
            <mxPoint x="-1611.75" y="1251" as="targetPoint" />
          </mxGeometry>
        </mxCell>
        <mxCell id="IxQoelx6kAWSLL4yI0PP-4" value="" style="endArrow=none;html=1;strokeWidth=7;" parent="1" edge="1">
          <mxGeometry width="50" height="50" relative="1" as="geometry">
            <mxPoint x="-1720" y="1291.5" as="sourcePoint" />
            <mxPoint x="-1611.75" y="1291.5" as="targetPoint" />
          </mxGeometry>
        </mxCell>
        <mxCell id="IxQoelx6kAWSLL4yI0PP-5" value="" style="endArrow=none;html=1;strokeWidth=7;" parent="1" edge="1">
          <mxGeometry width="50" height="50" relative="1" as="geometry">
            <mxPoint x="-1570" y="1208" as="sourcePoint" />
            <mxPoint x="-1411.75" y="1208" as="targetPoint" />
          </mxGeometry>
        </mxCell>
        <mxCell id="IxQoelx6kAWSLL4yI0PP-6" value="" style="endArrow=none;html=1;strokeWidth=7;" parent="1" edge="1">
          <mxGeometry width="50" height="50" relative="1" as="geometry">
            <mxPoint x="-1520" y="1251" as="sourcePoint" />
            <mxPoint x="-1411.75" y="1251" as="targetPoint" />
          </mxGeometry>
        </mxCell>
        <mxCell id="IxQoelx6kAWSLL4yI0PP-7" value="" style="endArrow=none;html=1;strokeWidth=7;" parent="1" edge="1">
          <mxGeometry width="50" height="50" relative="1" as="geometry">
            <mxPoint x="-1372.25" y="1251" as="sourcePoint" />
            <mxPoint x="-1264" y="1251" as="targetPoint" />
          </mxGeometry>
        </mxCell>
        <mxCell id="IxQoelx6kAWSLL4yI0PP-8" value="" style="endArrow=none;html=1;strokeWidth=7;" parent="1" edge="1">
          <mxGeometry width="50" height="50" relative="1" as="geometry">
            <mxPoint x="-1232.25" y="1251" as="sourcePoint" />
            <mxPoint x="-1124" y="1251" as="targetPoint" />
          </mxGeometry>
        </mxCell>
        <mxCell id="IxQoelx6kAWSLL4yI0PP-9" value="" style="endArrow=none;html=1;strokeWidth=2;" parent="1" edge="1">
          <mxGeometry width="50" height="50" relative="1" as="geometry">
            <mxPoint x="-1721.25" y="1351" as="sourcePoint" />
            <mxPoint x="-1721.25" y="1051" as="targetPoint" />
          </mxGeometry>
        </mxCell>
        <mxCell id="IxQoelx6kAWSLL4yI0PP-11" value="" style="endArrow=none;html=1;strokeWidth=2;" parent="1" edge="1">
          <mxGeometry width="50" height="50" relative="1" as="geometry">
            <mxPoint x="-1640" y="1351" as="sourcePoint" />
            <mxPoint x="-1640" y="1051" as="targetPoint" />
          </mxGeometry>
        </mxCell>
        <mxCell id="IxQoelx6kAWSLL4yI0PP-12" value="XLTQ" style="text;html=1;strokeColor=none;fillColor=none;align=center;verticalAlign=middle;whiteSpace=wrap;rounded=0;" parent="1" vertex="1">
          <mxGeometry x="-1821.5" y="1150" width="40" height="20" as="geometry" />
        </mxCell>
        <mxCell id="IxQoelx6kAWSLL4yI0PP-14" value="YPI" style="text;html=1;strokeColor=none;fillColor=none;align=center;verticalAlign=middle;whiteSpace=wrap;rounded=0;" parent="1" vertex="1">
          <mxGeometry x="-1821.5" y="1197" width="40" height="20" as="geometry" />
        </mxCell>
        <mxCell id="IxQoelx6kAWSLL4yI0PP-15" value="YPQ" style="text;html=1;strokeColor=none;fillColor=none;align=center;verticalAlign=middle;whiteSpace=wrap;rounded=0;" parent="1" vertex="1">
          <mxGeometry x="-1776.5" y="1240" width="40" height="20" as="geometry" />
        </mxCell>
        <mxCell id="IxQoelx6kAWSLL4yI0PP-16" value="LBGI" style="text;html=1;strokeColor=none;fillColor=none;align=center;verticalAlign=middle;whiteSpace=wrap;rounded=0;" parent="1" vertex="1">
          <mxGeometry x="-1514" y="1177" width="40" height="20" as="geometry" />
        </mxCell>
        <mxCell id="IxQoelx6kAWSLL4yI0PP-18" value="LBGQ" style="text;html=1;strokeColor=none;fillColor=none;align=center;verticalAlign=middle;whiteSpace=wrap;rounded=0;" parent="1" vertex="1">
          <mxGeometry x="-1514" y="1227" width="40" height="20" as="geometry" />
        </mxCell>
        <mxCell id="IxQoelx6kAWSLL4yI0PP-19" value="MJQ" style="text;html=1;strokeColor=none;fillColor=none;align=center;verticalAlign=middle;whiteSpace=wrap;rounded=0;" parent="1" vertex="1">
          <mxGeometry x="-1340" y="1227" width="40" height="20" as="geometry" />
        </mxCell>
        <mxCell id="IxQoelx6kAWSLL4yI0PP-20" value="MLQ" style="text;html=1;strokeColor=none;fillColor=none;align=center;verticalAlign=middle;whiteSpace=wrap;rounded=0;" parent="1" vertex="1">
          <mxGeometry x="-1200" y="1227" width="40" height="20" as="geometry" />
        </mxCell>
        <mxCell id="IxQoelx6kAWSLL4yI0PP-21" value="" style="endArrow=none;dashed=1;html=1;strokeWidth=2;" parent="1" edge="1">
          <mxGeometry width="50" height="50" relative="1" as="geometry">
            <mxPoint x="-1720" y="1250" as="sourcePoint" />
            <mxPoint x="-1750" y="1210" as="targetPoint" />
          </mxGeometry>
        </mxCell>
        <mxCell id="IxQoelx6kAWSLL4yI0PP-22" value="" style="endArrow=none;dashed=1;html=1;strokeWidth=2;" parent="1" edge="1">
          <mxGeometry width="50" height="50" relative="1" as="geometry">
            <mxPoint x="-1520" y="1247" as="sourcePoint" />
            <mxPoint x="-1550" y="1207" as="targetPoint" />
          </mxGeometry>
        </mxCell>
        <mxCell id="IxQoelx6kAWSLL4yI0PP-23" value="ts_n" style="text;html=1;strokeColor=none;fillColor=none;align=center;verticalAlign=middle;whiteSpace=wrap;rounded=0;" parent="1" vertex="1">
          <mxGeometry x="-1736.5" y="1021" width="40" height="20" as="geometry" />
        </mxCell>
        <mxCell id="IxQoelx6kAWSLL4yI0PP-25" value="ts" style="text;html=1;strokeColor=none;fillColor=none;align=center;verticalAlign=middle;whiteSpace=wrap;rounded=0;" parent="1" vertex="1">
          <mxGeometry x="-1660" y="1021" width="40" height="20" as="geometry" />
        </mxCell>
        <mxCell id="IxQoelx6kAWSLL4yI0PP-26" value="" style="endArrow=none;html=1;strokeWidth=2;" parent="1" edge="1">
          <mxGeometry width="50" height="50" relative="1" as="geometry">
            <mxPoint x="-1611.84" y="1351" as="sourcePoint" />
            <mxPoint x="-1611.84" y="1051" as="targetPoint" />
          </mxGeometry>
        </mxCell>
        <mxCell id="IxQoelx6kAWSLL4yI0PP-27" value="te" style="text;html=1;strokeColor=none;fillColor=none;align=center;verticalAlign=middle;whiteSpace=wrap;rounded=0;" parent="1" vertex="1">
          <mxGeometry x="-1631.5" y="1021" width="40" height="20" as="geometry" />
        </mxCell>
        <mxCell id="IxQoelx6kAWSLL4yI0PP-28" value="" style="endArrow=none;html=1;strokeWidth=2;" parent="1" edge="1">
          <mxGeometry width="50" height="50" relative="1" as="geometry">
            <mxPoint x="-1770" y="1351" as="sourcePoint" />
            <mxPoint x="-1770" y="1051" as="targetPoint" />
          </mxGeometry>
        </mxCell>
        <mxCell id="IxQoelx6kAWSLL4yI0PP-29" value="ts_2n" style="text;html=1;strokeColor=none;fillColor=none;align=center;verticalAlign=middle;whiteSpace=wrap;rounded=0;" parent="1" vertex="1">
          <mxGeometry x="-1790" y="1021" width="40" height="20" as="geometry" />
        </mxCell>
        <mxCell id="IxQoelx6kAWSLL4yI0PP-30" value="TYI" style="text;html=1;strokeColor=none;fillColor=none;align=center;verticalAlign=middle;whiteSpace=wrap;rounded=0;" parent="1" vertex="1">
          <mxGeometry x="-1776.5" y="1280" width="40" height="20" as="geometry" />
        </mxCell>
        <mxCell id="IxQoelx6kAWSLL4yI0PP-31" value="为得到TYI站点ts-te时间段的流量，需要TYI的ts-n到te时间长度的流量，则需要LBGQ、YPQ、MJQ、MLQ四个相同长度的流量作为输入，而得到YPQ和LBGQ需要用到上游ts-n之前的effect_p条数据，所以对YPI取ts-2n到te长度的流量数据，同理XLTQ LBGI都取ts-2n时候的状态和数据" style="rounded=0;whiteSpace=wrap;html=1;align=center;fontSize=12;fontStyle=0" parent="1" vertex="1">
          <mxGeometry x="-1553" y="1041" width="299" height="99" as="geometry" />
        </mxCell>
        <mxCell id="h9Lr88BszS75uB-EpbRY-2" value="" style="shape=flexArrow;endArrow=classic;startArrow=classic;html=1;fontSize=12;strokeWidth=2;labelBackgroundColor=#CCFFFF;fontColor=#FF99CC;labelBorderColor=none;fillColor=#f8cecc;strokeColor=#b85450;width=2.380952380952381;startSize=5.142857142857143;startWidth=5.532879818594104;endWidth=5.532879818594104;endSize=7.080952380952381;" parent="1" edge="1">
          <mxGeometry width="100" height="100" relative="1" as="geometry">
            <mxPoint x="-1770" y="1187" as="sourcePoint" />
            <mxPoint x="-1640" y="1187" as="targetPoint" />
          </mxGeometry>
        </mxCell>
        <mxCell id="ZSUv1f-P_nfMOtpfJ-8h-3" value="模拟&lt;br&gt;simulate" style="rounded=0;whiteSpace=wrap;html=1;" parent="1" vertex="1">
          <mxGeometry x="-2086" y="1900" width="100" height="38" as="geometry" />
        </mxCell>
        <mxCell id="ZSUv1f-P_nfMOtpfJ-8h-4" value="输入输出的转换：读写文件-&amp;gt;数据库操作&lt;br&gt;（数据平滑、数据拼接）&lt;br&gt;&lt;br style=&quot;font-size: 24px&quot;&gt;流程整合：XAJ细分了四个阶段，各个阶段衔接（基于数据划分）&lt;br&gt;&lt;br style=&quot;font-size: 24px&quot;&gt;代码重构：理解细节，改造为面向对象的形式（Basin）or多进程（率定程序）&lt;br&gt;&lt;br style=&quot;font-size: 24px&quot;&gt;增加功能：手动预报（手动修改气象预报、上游水库）&lt;br&gt;&lt;br&gt;前后端交互（进行中）" style="rounded=0;whiteSpace=wrap;html=1;align=left;verticalAlign=middle;fontSize=24;fontStyle=1" parent="1" vertex="1">
          <mxGeometry x="-3015" y="1560" width="925" height="310" as="geometry" />
        </mxCell>
        <mxCell id="NCntrkOaTtiR4dya-rGu-2" style="edgeStyle=orthogonalEdgeStyle;rounded=0;orthogonalLoop=1;jettySize=auto;html=1;exitX=0.5;exitY=1;exitDx=0;exitDy=0;entryX=0.5;entryY=0;entryDx=0;entryDy=0;" parent="1" source="NCntrkOaTtiR4dya-rGu-1" target="cCYQIvM1xQURCpns52On-72" edge="1">
          <mxGeometry relative="1" as="geometry" />
        </mxCell>
        <mxCell id="NCntrkOaTtiR4dya-rGu-1" value="初始状态0" style="rounded=0;whiteSpace=wrap;html=1;" parent="1" vertex="1">
          <mxGeometry x="-2350" y="1999" width="70" height="40" as="geometry" />
        </mxCell>
        <mxCell id="NCntrkOaTtiR4dya-rGu-4" style="edgeStyle=orthogonalEdgeStyle;rounded=0;orthogonalLoop=1;jettySize=auto;html=1;exitX=0.5;exitY=1;exitDx=0;exitDy=0;entryX=0.5;entryY=0;entryDx=0;entryDy=0;" parent="1" source="NCntrkOaTtiR4dya-rGu-3" target="l1AshoZJ0C4mU3mJfbrx-20" edge="1">
          <mxGeometry relative="1" as="geometry" />
        </mxCell>
        <mxCell id="NCntrkOaTtiR4dya-rGu-3" value="修改上游水库预报结果" style="rounded=0;whiteSpace=wrap;html=1;" parent="1" vertex="1">
          <mxGeometry x="-1594" y="2171" width="130" height="40" as="geometry" />
        </mxCell>
      </root>
    </mxGraphModel>
  </diagram>
  <diagram id="YQBj-jEAiSu9hDOJv5MR" name="Page-2">
    <mxGraphModel dx="1662" dy="794" grid="0" gridSize="10" guides="1" tooltips="1" connect="1" arrows="1" fold="1" page="1" pageScale="1" pageWidth="1100" pageHeight="850" math="0" shadow="0">
      <root>
        <mxCell id="nsl4tLHa154OA0qPo9PH-0" />
        <mxCell id="nsl4tLHa154OA0qPo9PH-1" parent="nsl4tLHa154OA0qPo9PH-0" />
        <mxCell id="lpps4m7xZtl5D8s6SNhG-30" value="" style="rounded=0;whiteSpace=wrap;html=1;" parent="nsl4tLHa154OA0qPo9PH-1" vertex="1">
          <mxGeometry x="216" y="366" width="680" height="60" as="geometry" />
        </mxCell>
        <mxCell id="lpps4m7xZtl5D8s6SNhG-26" value="" style="rounded=0;whiteSpace=wrap;html=1;" parent="nsl4tLHa154OA0qPo9PH-1" vertex="1">
          <mxGeometry x="216" y="436" width="680" height="120" as="geometry" />
        </mxCell>
        <mxCell id="nsl4tLHa154OA0qPo9PH-2" value="模型管理模块" style="rounded=1;whiteSpace=wrap;html=1;shadow=1;" parent="nsl4tLHa154OA0qPo9PH-1" vertex="1">
          <mxGeometry x="246" y="376" width="110" height="40" as="geometry" />
        </mxCell>
        <mxCell id="nsl4tLHa154OA0qPo9PH-3" value="参数管理模块" style="rounded=1;whiteSpace=wrap;html=1;shadow=1;" parent="nsl4tLHa154OA0qPo9PH-1" vertex="1">
          <mxGeometry x="376" y="376" width="110" height="40" as="geometry" />
        </mxCell>
        <mxCell id="nsl4tLHa154OA0qPo9PH-4" value="状态管理模块" style="rounded=1;whiteSpace=wrap;html=1;shadow=1;" parent="nsl4tLHa154OA0qPo9PH-1" vertex="1">
          <mxGeometry x="506" y="376" width="110" height="40" as="geometry" />
        </mxCell>
        <mxCell id="nsl4tLHa154OA0qPo9PH-6" value="" style="rounded=0;whiteSpace=wrap;html=1;" parent="nsl4tLHa154OA0qPo9PH-1" vertex="1">
          <mxGeometry x="216" y="126" width="680" height="70" as="geometry" />
        </mxCell>
        <mxCell id="nsl4tLHa154OA0qPo9PH-10" value="" style="rounded=0;whiteSpace=wrap;html=1;" parent="nsl4tLHa154OA0qPo9PH-1" vertex="1">
          <mxGeometry x="216" y="246" width="680" height="60" as="geometry" />
        </mxCell>
        <mxCell id="nsl4tLHa154OA0qPo9PH-11" value="" style="rounded=0;whiteSpace=wrap;html=1;" parent="nsl4tLHa154OA0qPo9PH-1" vertex="1">
          <mxGeometry x="214.5" y="579" width="681.5" height="133" as="geometry" />
        </mxCell>
        <mxCell id="nsl4tLHa154OA0qPo9PH-12" value="Django" style="rounded=0;whiteSpace=wrap;html=1;fillColor=#f5f5f5;fontColor=#333333;strokeColor=#666666;" parent="nsl4tLHa154OA0qPo9PH-1" vertex="1">
          <mxGeometry x="216" y="327.5" width="680" height="17" as="geometry" />
        </mxCell>
        <mxCell id="nsl4tLHa154OA0qPo9PH-13" value="Spring" style="rounded=0;whiteSpace=wrap;html=1;fillColor=#f5f5f5;fontColor=#333333;strokeColor=#666666;" parent="nsl4tLHa154OA0qPo9PH-1" vertex="1">
          <mxGeometry x="216" y="215" width="680" height="18" as="geometry" />
        </mxCell>
        <mxCell id="lpps4m7xZtl5D8s6SNhG-0" value="应用层" style="text;html=1;strokeColor=none;fillColor=none;align=center;verticalAlign=middle;whiteSpace=wrap;rounded=0;" parent="nsl4tLHa154OA0qPo9PH-1" vertex="1">
          <mxGeometry x="126" y="146" width="60" height="30" as="geometry" />
        </mxCell>
        <mxCell id="lpps4m7xZtl5D8s6SNhG-1" value="基础信息管理" style="rounded=1;whiteSpace=wrap;html=1;shadow=1;sketch=0;glass=0;" parent="nsl4tLHa154OA0qPo9PH-1" vertex="1">
          <mxGeometry x="636" y="141" width="110" height="40" as="geometry" />
        </mxCell>
        <mxCell id="lpps4m7xZtl5D8s6SNhG-2" value="洪水记录整编" style="rounded=1;whiteSpace=wrap;html=1;shadow=1;sketch=0;glass=0;" parent="nsl4tLHa154OA0qPo9PH-1" vertex="1">
          <mxGeometry x="766" y="141" width="110" height="40" as="geometry" />
        </mxCell>
        <mxCell id="lpps4m7xZtl5D8s6SNhG-3" value="径流预报分析" style="rounded=1;whiteSpace=wrap;html=1;shadow=1;sketch=0;glass=0;" parent="nsl4tLHa154OA0qPo9PH-1" vertex="1">
          <mxGeometry x="376" y="141" width="110" height="40" as="geometry" />
        </mxCell>
        <mxCell id="lpps4m7xZtl5D8s6SNhG-4" value="参数率定" style="rounded=1;whiteSpace=wrap;html=1;shadow=1;sketch=0;glass=0;" parent="nsl4tLHa154OA0qPo9PH-1" vertex="1">
          <mxGeometry x="246" y="141" width="110" height="40" as="geometry" />
        </mxCell>
        <mxCell id="lpps4m7xZtl5D8s6SNhG-5" value="模型管理" style="rounded=1;whiteSpace=wrap;html=1;shadow=1;sketch=0;glass=0;" parent="nsl4tLHa154OA0qPo9PH-1" vertex="1">
          <mxGeometry x="506" y="141" width="110" height="40" as="geometry" />
        </mxCell>
        <mxCell id="lpps4m7xZtl5D8s6SNhG-6" value="业务层" style="text;html=1;strokeColor=none;fillColor=none;align=center;verticalAlign=middle;whiteSpace=wrap;rounded=0;" parent="nsl4tLHa154OA0qPo9PH-1" vertex="1">
          <mxGeometry x="126" y="261" width="60" height="30" as="geometry" />
        </mxCell>
        <mxCell id="lpps4m7xZtl5D8s6SNhG-7" value="UI" style="rounded=0;whiteSpace=wrap;html=1;fillColor=#f5f5f5;strokeColor=#666666;fontColor=#333333;" parent="nsl4tLHa154OA0qPo9PH-1" vertex="1">
          <mxGeometry x="216" y="99" width="680" height="17" as="geometry" />
        </mxCell>
        <mxCell id="lpps4m7xZtl5D8s6SNhG-8" value="MySQL" style="rounded=0;whiteSpace=wrap;html=1;" parent="nsl4tLHa154OA0qPo9PH-1" vertex="1">
          <mxGeometry x="497" y="732" width="397.5" height="47" as="geometry" />
        </mxCell>
        <mxCell id="lpps4m7xZtl5D8s6SNhG-9" value="数据库管理&lt;span style=&quot;color: rgba(0 , 0 , 0 , 0) ; font-family: monospace ; font-size: 0px&quot;&gt;%3CmxGraphModel%3E%3Croot%3E%3CmxCell%20id%3D%220%22%2F%3E%3CmxCell%20id%3D%221%22%20parent%3D%220%22%2F%3E%3CmxCell%20id%3D%222%22%20value%3D%22%E5%8F%82%E6%95%B0%E7%8E%87%E5%AE%9A%22%20style%3D%22rounded%3D1%3BwhiteSpace%3Dwrap%3Bhtml%3D1%3B%22%20vertex%3D%221%22%20parent%3D%221%22%3E%3CmxGeometry%20x%3D%22250%22%20y%3D%22225%22%20width%3D%22110%22%20height%3D%2240%22%20as%3D%22geometry%22%2F%3E%3C%2FmxCell%3E%3C%2Froot%3E%3C%2FmxGraphModel%3E&lt;/span&gt;" style="rounded=1;whiteSpace=wrap;html=1;shadow=1;" parent="nsl4tLHa154OA0qPo9PH-1" vertex="1">
          <mxGeometry x="246" y="256" width="110" height="40" as="geometry" />
        </mxCell>
        <mxCell id="lpps4m7xZtl5D8s6SNhG-10" value="日志管理" style="rounded=1;whiteSpace=wrap;html=1;shadow=1;" parent="nsl4tLHa154OA0qPo9PH-1" vertex="1">
          <mxGeometry x="376" y="256" width="110" height="40" as="geometry" />
        </mxCell>
        <mxCell id="lpps4m7xZtl5D8s6SNhG-11" value="自动预报管理" style="rounded=1;whiteSpace=wrap;html=1;shadow=1;" parent="nsl4tLHa154OA0qPo9PH-1" vertex="1">
          <mxGeometry x="506" y="256" width="110" height="40" as="geometry" />
        </mxCell>
        <mxCell id="lpps4m7xZtl5D8s6SNhG-12" value="用户管理" style="rounded=1;whiteSpace=wrap;html=1;shadow=1;" parent="nsl4tLHa154OA0qPo9PH-1" vertex="1">
          <mxGeometry x="636" y="256" width="110" height="40" as="geometry" />
        </mxCell>
        <mxCell id="lpps4m7xZtl5D8s6SNhG-13" value="权限控制" style="rounded=1;whiteSpace=wrap;html=1;shadow=1;" parent="nsl4tLHa154OA0qPo9PH-1" vertex="1">
          <mxGeometry x="776" y="256" width="110" height="40" as="geometry" />
        </mxCell>
        <mxCell id="lpps4m7xZtl5D8s6SNhG-14" value="算法接口" style="text;html=1;strokeColor=none;fillColor=none;align=center;verticalAlign=middle;whiteSpace=wrap;rounded=0;" parent="nsl4tLHa154OA0qPo9PH-1" vertex="1">
          <mxGeometry x="126" y="321" width="60" height="30" as="geometry" />
        </mxCell>
        <mxCell id="lpps4m7xZtl5D8s6SNhG-16" value="短期新安江" style="rounded=1;whiteSpace=wrap;html=1;shadow=1;" parent="nsl4tLHa154OA0qPo9PH-1" vertex="1">
          <mxGeometry x="246" y="446" width="110" height="40" as="geometry" />
        </mxCell>
        <mxCell id="lpps4m7xZtl5D8s6SNhG-17" value="短期实时校正" style="rounded=1;whiteSpace=wrap;html=1;shadow=1;" parent="nsl4tLHa154OA0qPo9PH-1" vertex="1">
          <mxGeometry x="376" y="446" width="110" height="40" as="geometry" />
        </mxCell>
        <mxCell id="lpps4m7xZtl5D8s6SNhG-18" value="短期类比法" style="rounded=1;whiteSpace=wrap;html=1;shadow=1;" parent="nsl4tLHa154OA0qPo9PH-1" vertex="1">
          <mxGeometry x="506" y="446" width="110" height="40" as="geometry" />
        </mxCell>
        <mxCell id="lpps4m7xZtl5D8s6SNhG-20" value="中期机器学习" style="rounded=1;whiteSpace=wrap;html=1;" parent="nsl4tLHa154OA0qPo9PH-1" vertex="1">
          <mxGeometry x="776" y="446" width="110" height="40" as="geometry" />
        </mxCell>
        <mxCell id="lpps4m7xZtl5D8s6SNhG-21" value="中期概率统计" style="rounded=1;whiteSpace=wrap;html=1;shadow=1;" parent="nsl4tLHa154OA0qPo9PH-1" vertex="1">
          <mxGeometry x="246" y="506" width="110" height="40" as="geometry" />
        </mxCell>
        <mxCell id="lpps4m7xZtl5D8s6SNhG-22" value="长期机器学习" style="rounded=1;whiteSpace=wrap;html=1;shadow=1;" parent="nsl4tLHa154OA0qPo9PH-1" vertex="1">
          <mxGeometry x="376" y="504" width="110" height="40" as="geometry" />
        </mxCell>
        <mxCell id="lpps4m7xZtl5D8s6SNhG-23" value="长期线性回归" style="rounded=1;whiteSpace=wrap;html=1;shadow=1;" parent="nsl4tLHa154OA0qPo9PH-1" vertex="1">
          <mxGeometry x="506" y="504" width="110" height="40" as="geometry" />
        </mxCell>
        <mxCell id="lpps4m7xZtl5D8s6SNhG-24" value="长期概率统计" style="rounded=1;whiteSpace=wrap;html=1;shadow=1;" parent="nsl4tLHa154OA0qPo9PH-1" vertex="1">
          <mxGeometry x="636" y="506" width="110" height="40" as="geometry" />
        </mxCell>
        <mxCell id="lpps4m7xZtl5D8s6SNhG-25" value="长期水量平衡" style="rounded=1;whiteSpace=wrap;html=1;shadow=1;" parent="nsl4tLHa154OA0qPo9PH-1" vertex="1">
          <mxGeometry x="776" y="506" width="110" height="40" as="geometry" />
        </mxCell>
        <mxCell id="lpps4m7xZtl5D8s6SNhG-27" value="基础算法" style="text;html=1;strokeColor=none;fillColor=none;align=center;verticalAlign=middle;whiteSpace=wrap;rounded=0;" parent="nsl4tLHa154OA0qPo9PH-1" vertex="1">
          <mxGeometry x="126" y="476" width="60" height="30" as="geometry" />
        </mxCell>
        <mxCell id="lpps4m7xZtl5D8s6SNhG-28" value="时序管理模块" style="rounded=1;whiteSpace=wrap;html=1;shadow=1;" parent="nsl4tLHa154OA0qPo9PH-1" vertex="1">
          <mxGeometry x="636" y="376" width="110" height="40" as="geometry" />
        </mxCell>
        <mxCell id="lpps4m7xZtl5D8s6SNhG-29" value="异常处理模块" style="rounded=1;whiteSpace=wrap;html=1;shadow=1;" parent="nsl4tLHa154OA0qPo9PH-1" vertex="1">
          <mxGeometry x="776" y="376" width="110" height="40" as="geometry" />
        </mxCell>
        <mxCell id="lpps4m7xZtl5D8s6SNhG-31" value="算法管理" style="text;html=1;strokeColor=none;fillColor=none;align=center;verticalAlign=middle;whiteSpace=wrap;rounded=0;" parent="nsl4tLHa154OA0qPo9PH-1" vertex="1">
          <mxGeometry x="126" y="381" width="60" height="30" as="geometry" />
        </mxCell>
        <mxCell id="lpps4m7xZtl5D8s6SNhG-32" value="中期机器学习" style="rounded=1;whiteSpace=wrap;html=1;shadow=1;" parent="nsl4tLHa154OA0qPo9PH-1" vertex="1">
          <mxGeometry x="776" y="446" width="110" height="40" as="geometry" />
        </mxCell>
        <mxCell id="lpps4m7xZtl5D8s6SNhG-33" value="中期新安江" style="rounded=1;whiteSpace=wrap;html=1;shadow=1;" parent="nsl4tLHa154OA0qPo9PH-1" vertex="1">
          <mxGeometry x="636" y="446" width="110" height="40" as="geometry" />
        </mxCell>
        <mxCell id="lpps4m7xZtl5D8s6SNhG-34" value="基础数据" style="text;html=1;strokeColor=none;fillColor=none;align=center;verticalAlign=middle;whiteSpace=wrap;rounded=0;" parent="nsl4tLHa154OA0qPo9PH-1" vertex="1">
          <mxGeometry x="123" y="634" width="60" height="30" as="geometry" />
        </mxCell>
        <mxCell id="lpps4m7xZtl5D8s6SNhG-36" value="站点基本信息" style="rounded=1;whiteSpace=wrap;html=1;shadow=1;" parent="nsl4tLHa154OA0qPo9PH-1" vertex="1">
          <mxGeometry x="246" y="594" width="110" height="40" as="geometry" />
        </mxCell>
        <mxCell id="lpps4m7xZtl5D8s6SNhG-37" value="站点基本信息" style="rounded=1;whiteSpace=wrap;html=1;shadow=1;" parent="nsl4tLHa154OA0qPo9PH-1" vertex="1">
          <mxGeometry x="376" y="596" width="110" height="40" as="geometry" />
        </mxCell>
        <mxCell id="lpps4m7xZtl5D8s6SNhG-38" value="模型状态" style="rounded=1;whiteSpace=wrap;html=1;shadow=1;" parent="nsl4tLHa154OA0qPo9PH-1" vertex="1">
          <mxGeometry x="636" y="596" width="110" height="40" as="geometry" />
        </mxCell>
        <mxCell id="lpps4m7xZtl5D8s6SNhG-39" value="洪水详情" style="rounded=1;whiteSpace=wrap;html=1;shadow=1;" parent="nsl4tLHa154OA0qPo9PH-1" vertex="1">
          <mxGeometry x="376" y="659" width="110" height="40" as="geometry" />
        </mxCell>
        <mxCell id="lpps4m7xZtl5D8s6SNhG-40" value="预报方案" style="rounded=1;whiteSpace=wrap;html=1;shadow=1;" parent="nsl4tLHa154OA0qPo9PH-1" vertex="1">
          <mxGeometry x="636" y="659" width="110" height="40" as="geometry" />
        </mxCell>
        <mxCell id="lpps4m7xZtl5D8s6SNhG-41" value="规整数据" style="rounded=1;whiteSpace=wrap;html=1;shadow=1;" parent="nsl4tLHa154OA0qPo9PH-1" vertex="1">
          <mxGeometry x="776" y="659" width="110" height="40" as="geometry" />
        </mxCell>
        <mxCell id="lpps4m7xZtl5D8s6SNhG-42" value="洪水数据" style="rounded=1;whiteSpace=wrap;html=1;shadow=1;" parent="nsl4tLHa154OA0qPo9PH-1" vertex="1">
          <mxGeometry x="246" y="659" width="110" height="40" as="geometry" />
        </mxCell>
        <mxCell id="lpps4m7xZtl5D8s6SNhG-43" value="预报数据" style="rounded=1;whiteSpace=wrap;html=1;shadow=1;" parent="nsl4tLHa154OA0qPo9PH-1" vertex="1">
          <mxGeometry x="506" y="659" width="110" height="40" as="geometry" />
        </mxCell>
        <mxCell id="lpps4m7xZtl5D8s6SNhG-44" value="气象数据" style="rounded=1;whiteSpace=wrap;html=1;shadow=1;" parent="nsl4tLHa154OA0qPo9PH-1" vertex="1">
          <mxGeometry x="506" y="596" width="110" height="40" as="geometry" />
        </mxCell>
        <mxCell id="lpps4m7xZtl5D8s6SNhG-45" value="模型参数" style="rounded=1;whiteSpace=wrap;html=1;shadow=1;" parent="nsl4tLHa154OA0qPo9PH-1" vertex="1">
          <mxGeometry x="776" y="596" width="110" height="40" as="geometry" />
        </mxCell>
        <mxCell id="lpps4m7xZtl5D8s6SNhG-46" value="CSV文件" style="rounded=0;whiteSpace=wrap;html=1;" parent="nsl4tLHa154OA0qPo9PH-1" vertex="1">
          <mxGeometry x="333" y="732" width="164" height="47" as="geometry" />
        </mxCell>
        <mxCell id="lpps4m7xZtl5D8s6SNhG-47" value="Shelve" style="rounded=0;whiteSpace=wrap;html=1;" parent="nsl4tLHa154OA0qPo9PH-1" vertex="1">
          <mxGeometry x="215" y="732" width="118" height="47" as="geometry" />
        </mxCell>
        <mxCell id="lpps4m7xZtl5D8s6SNhG-48" value="存储引擎" style="text;html=1;strokeColor=none;fillColor=none;align=center;verticalAlign=middle;whiteSpace=wrap;rounded=0;" parent="nsl4tLHa154OA0qPo9PH-1" vertex="1">
          <mxGeometry x="126" y="736" width="60" height="30" as="geometry" />
        </mxCell>
        <mxCell id="PtY_yb0QbOiOQDW4K4Sy-0" value="软硬件基础设施" style="rounded=0;whiteSpace=wrap;html=1;" parent="nsl4tLHa154OA0qPo9PH-1" vertex="1">
          <mxGeometry x="216" y="788" width="681.5" height="31" as="geometry" />
        </mxCell>
        <mxCell id="gZWX7v25P8pJcckC59zn-0" value="基础设施" style="text;html=1;strokeColor=none;fillColor=none;align=center;verticalAlign=middle;whiteSpace=wrap;rounded=0;" parent="nsl4tLHa154OA0qPo9PH-1" vertex="1">
          <mxGeometry x="126" y="788" width="60" height="30" as="geometry" />
        </mxCell>
      </root>
    </mxGraphModel>
  </diagram>
</mxfile>
